<svg width="311" height="319" viewBox="0 0 311 319" fill="none" xmlns="http://www.w3.org/2000/svg">
<rect width="311" height="319" rx="155.5" fill="white"/>
<path fill-rule="evenodd" clip-rule="evenodd" d="M131.784 62C126.109 62 121.436 66.3109 121.436 71.5454V111.978C121.436 113.036 120.869 114.019 119.92 114.613C118.97 115.207 117.772 115.327 116.706 114.936L81.7808 101.588C80.4704 101.086 79.1029 100.86 77.7586 100.873C73.7269 100.911 69.888 103.132 68.2586 106.758L49.7794 147.911C47.6081 152.746 50.1321 158.39 55.3786 160.384L97.7378 176.492C98.7095 176.863 99.4394 177.617 99.732 178.549C100.025 179.481 99.8398 180.472 99.2331 181.265L71.5035 213.636C68.0494 217.788 68.9087 223.836 73.4099 227.022L111.725 254.142C116.226 257.328 122.783 256.53 126.237 252.377L153.2 220.894C153.854 220.107 154.86 219.651 155.935 219.651C157.009 219.651 158.015 220.107 158.669 220.894L185.632 252.377C189.087 256.529 195.642 257.328 200.144 254.142L238.459 227.022C242.961 223.836 243.82 217.789 240.366 213.636L212.636 181.265C212.029 180.473 211.846 179.481 212.137 178.549C212.43 177.617 213.16 176.863 214.131 176.492L256.491 160.384C261.738 158.39 264.261 152.748 262.09 147.911L243.609 106.758C241.98 103.132 238.141 100.912 234.109 100.873C232.765 100.86 231.398 101.088 230.087 101.588L195.161 114.936C194.096 115.328 192.897 115.207 191.947 114.613C190.994 114.019 190.427 113.036 190.427 111.978V71.5454C190.427 66.3109 185.754 62 180.079 62H131.784Z" fill="#0148F8"/>
</svg>
